# File created by Blade
# Date/Time:  Thu Jan 22 19:13:21 2015
#---------------------------------------------------------
:version 1.10
:name HOM
:units
  mass 1.0
  length 1.000000
  angle deg
:documentation
     Acclaim Skeleton File
:root
   axis xyz
   order TX TY TZ RX RY RZ
   position 0.000000 0.000000 0.000000
   orientation 0 0 0
:bonedata
   begin
      id 1
      name RightUpLeg_dum
      direction -1.000000 0.000000 0.000000
      length 4.478084
      axis 0.0 0.0 0.0 xyz
   end
   begin
      id 2
      name LeftUpLeg_dum
      direction 1.000000 0.000000 0.000000
      length 4.478084
      axis 0.0 0.0 0.0 xyz
   end
   begin
      id 3
      name Spine_dum
      direction 0.000000 1.000000 0.000000
      length 6.068208
      axis 0.0 0.0 0.0 xyz
   end
   begin
      id 4
      name RightUpLeg
      direction 0.000000 -1.000000 0.000000
      length 16.405774
      axis 0.0 0.0 0.0 xyz
      dof rx ry rz
   end
   begin
      id 5
      name RightLeg
      direction 0.000000 -1.000000 0.000000
      length 14.644143
      axis 0.0 0.0 0.0 xyz
      dof rx ry rz
   end
   begin
      id 6
      name RightFoot
      direction 0.000000 -0.258819 0.965926
      length 5.806150
      axis 15.0 0.0 0.0 xyz
      dof rx ry rz
   end
   begin
      id 7
      name RightToeBase
      direction 0.000000 0.000000 1.000000
      length 2.952750
      axis 0.0 0.0 0.0 xyz
      dof rx ry rz
   end
   begin
      id 8
      name LeftUpLeg
      direction 0.000000 -1.000000 0.000000
      length 16.405774
      axis 0.0 0.0 0.0 xyz
      dof rx ry rz
   end
   begin
      id 9
      name LeftLeg
      direction 0.000000 -1.000000 0.000000
      length 14.644143
      axis 0.0 0.0 0.0 xyz
      dof rx ry rz
   end
   begin
      id 10
      name LeftFoot
      direction 0.000000 -0.258819 0.965926
      length 5.806150
      axis 15.0 0.0 0.0 xyz
      dof rx ry rz
   end
   begin
      id 11
      name LeftToeBase
      direction 0.000000 0.000000 1.000000
      length 2.952750
      axis 0.0 0.0 0.0 xyz
      dof rx ry rz
   end
   begin
      id 12
      name Spine
      direction 0.000000 1.000000 0.000000
      length 0.000000
      axis 0.0 0.0 0.0 xyz
      dof rx ry rz
   end
   begin
      id 13
      name Spine_dum1
      direction 0.000000 1.000000 0.000000
      length 10.013923
      axis 0.0 0.0 0.0 xyz
   end
   begin
      id 14
      name Spine_dum2
      direction 0.000000 1.000000 0.000000
      length 10.013923
      axis 0.0 0.0 0.0 xyz
   end
   begin
      id 15
      name Spine_dum3
      direction 0.000000 1.000000 0.000000
      length 15.777476
      axis 0.0 0.0 0.0 xyz
   end
   begin
      id 16
      name RightShoulder
      direction -1.000000 0.000000 0.000000
      length 7.190220
      axis 0.0 0.0 90.0 xyz
      dof rx ry rz
   end
   begin
      id 17
      name RightArm
      direction -1.000000 0.000000 0.000000
      length 10.177469
      axis 0.0 0.0 90.0 xyz
      dof rx ry rz
   end
   begin
      id 18
      name RightForeArm
      direction -1.000000 0.000000 0.000000
      length 8.392114
      axis 0.0 0.0 90.0 xyz
      dof ry rz rx
   end
   begin
      id 19
      name RightHand
      direction -1.000000 0.000000 0.000000
      length 0.000000
      axis 0.0 0.0 90.0 xyz
      dof rx ry rz
   end
   begin
      id 20
      name RightHand_dum1
      direction -1.000000 0.000000 0.000000
      length 3.937000
      axis 0.0 0.0 90.0 xyz
   end
   begin
      id 21
      name RightHand_dum2
      direction 0.000000 0.000000 0.000000
      length 0.000000
      axis 0.0 0.0 90.0 xyz
   end
   begin
      id 22
      name RightHandThumb1
      direction 0.000000 0.000000 1.000000
      length 3.937000
      axis 0.0 0.0 90.0 xyz
      dof rx rz ry
   end
   begin
      id 23
      name LeftShoulder
      direction 1.000000 0.000000 0.000000
      length 7.190220
      axis 0.0 0.0 -90.0 xyz
      dof rx ry rz
   end
   begin
      id 24
      name LeftArm
      direction 1.000000 0.000000 0.000000
      length 10.177469
      axis 0.0 0.0 -90.0 xyz
      dof rx ry rz
   end
   begin
      id 25
      name LeftForeArm
      direction 1.000000 0.000000 0.000000
      length 8.392114
      axis 0.0 0.0 -90.0 xyz
      dof ry rz rx
   end
   begin
      id 26
      name LeftHand
      direction 1.000000 0.000000 0.000000
      length 0.000000
      axis 0.0 0.0 -90.0 xyz
      dof rx ry rz
   end
   begin
      id 27
      name LeftHand_dum1
      direction 1.000000 0.000000 0.000000
      length 3.937000
      axis 0.0 0.0 -90.0 xyz
   end
   begin
      id 28
      name LeftHand_dum2
      direction 0.000000 0.000000 0.000000
      length 0.000000
      axis 0.0 0.0 -90.0 xyz
   end
   begin
      id 29
      name LeftHandThumb1
      direction 0.000000 0.000000 1.000000
      length 3.937000
      axis 0.0 0.0 -90.0 xyz
      dof rx rz ry
   end
   begin
      id 30
      name Head
      direction 0.000000 1.000000 0.000000
      length 4.527550
      axis 0.0 0.0 0.0 xyz
      dof rx ry rz
   end
:hierarchy
   begin
      root RightUpLeg_dum LeftUpLeg_dum Spine_dum
      RightUpLeg_dum RightUpLeg
      LeftUpLeg_dum LeftUpLeg
      Spine_dum Spine
      RightUpLeg RightLeg
      RightLeg RightFoot
      RightFoot RightToeBase
      LeftUpLeg LeftLeg
      LeftLeg LeftFoot
      LeftFoot LeftToeBase
      Spine Spine_dum1 Spine_dum2 Spine_dum3
      Spine_dum1 RightShoulder
      Spine_dum2 LeftShoulder
      Spine_dum3 Head
      RightShoulder RightArm
      RightArm RightForeArm
      RightForeArm RightHand
      RightHand RightHand_dum1 RightHand_dum2
      RightHand_dum2 RightHandThumb1
      LeftShoulder LeftArm
      LeftArm LeftForeArm
      LeftForeArm LeftHand
      LeftHand LeftHand_dum1 LeftHand_dum2
      LeftHand_dum2 LeftHandThumb1
   end

# File created by Blade
# Date/Time:  Thu Jan 22 19:13:14 2015
# Frame Rate: 120.000 fps
#------------------------------------------------------
:FULLY-SPECIFIED
:DEGREES
1009
root 2.472824 29.831350 -6.641009 78.459140 -54.284013 -21.756733
RightUpLeg -81.570272 8.999469 -1.630827
RightLeg -2.249326 -0.000000 0.000000
RightFoot 15.711637 -1.589946 6.547124
RightToeBase 10.711853 -0.000000 -0.000000
LeftUpLeg -40.525321 47.170594 -0.659720
LeftLeg 0.176322 -0.000000 -0.000000
LeftFoot -18.706467 5.377031 -39.319042
LeftToeBase 11.521585 -0.000000 -0.000000
Spine 49.605175 -30.120542 -28.196723
RightShoulder -23.840619 -22.804362 -16.156045
RightArm -12.624188 37.457278 54.259539
RightForeArm 26.176294 0.000000 11.155259
RightHand 15.872186 -0.000000 -14.695979
RightHandThumb1 -24.326973 -0.000000 -32.862282
LeftShoulder 0.926842 -18.459781 29.388080
LeftArm 45.602957 -13.470592 -57.356748
LeftForeArm -1.870225 -0.000000 8.384410
LeftHand -2.621595 -0.000000 -6.675982
LeftHandThumb1 -26.253704 0.000000 33.147579
Head -12.859003 -42.363475 19.040795
1010
root 2.478355 29.829357 -6.641136 78.423874 -54.289782 -21.744385
RightUpLeg -81.548673 8.984002 -1.637185
RightLeg -2.276144 -0.000000 0.000000
RightFoot 15.760022 -1.601918 6.658255
RightToeBase 10.666944 -0.000000 -0.000000
LeftUpLeg -40.494786 47.172850 -0.666223
LeftLeg 0.149191 -0.000000 -0.000000
LeftFoot -18.715446 5.354133 -39.240685
LeftToeBase 11.470415 -0.000000 -0.000000
Spine 49.618544 -30.129993 -28.201093
RightShoulder -23.840555 -22.799951 -16.183499
RightArm -12.646877 37.500924 54.263848
RightForeArm 26.173723 -0.000000 11.148460
RightHand 15.899584 -0.000000 -14.778722
RightHandThumb1 -24.326973 -0.000000 -32.862282
LeftShoulder 0.936165 -18.450886 29.364094
LeftArm 45.585221 -13.416777 -57.250098
LeftForeArm -1.924096 -0.000000 8.347750
LeftHand -2.622960 -0.000000 -6.641434
LeftHandThumb1 -26.253704 0.000000 33.147579
Head -12.884220 -42.398539 18.962963
1011
root 2.482281 29.828579 -6.642120 78.386687 -54.280361 -21.732491
RightUpLeg -81.522033 8.977791 -1.661799
RightLeg -2.289234 -0.000000 0.000000
RightFoot 15.762099 -1.646720 6.734033
RightToeBase 10.597728 -0.000000 -0.000000
LeftUpLeg -40.468367 47.178765 -0.658468
LeftLeg 0.126858 -0.000000 -0.000000
LeftFoot -18.709408 5.332960 -39.198184
LeftToeBase 11.427929 -0.000000 -0.000000
Spine 49.641053 -30.140905 -28.195411
RightShoulder -23.840721 -22.815463 -16.195410
RightArm -12.629280 37.526688 54.289856
RightForeArm 26.186848 -0.000000 11.127658
RightHand 15.894787 0.000000 -14.825301
RightHandThumb1 -24.326973 -0.000000 -32.862282
LeftShoulder 0.951828 -18.432397 29.351619
LeftArm 45.558766 -13.389891 -57.159774
LeftForeArm -1.947304 -0.000000 8.340649
LeftHand -2.546003 -0.000000 -6.728735
LeftHandThumb1 -26.253704 0.000000 33.147579
Head -12.912527 -42.397293 18.889954
1012
root 2.485504 29.827747 -6.641784 78.342307 -54.268156 -21.727878
RightUpLeg -81.467165 8.965411 -1.652169
RightLeg -2.318959 -0.000000 0.000000
RightFoot 15.761184 -1.649120 6.835435
RightToeBase 10.635115 -0.000000 -0.000000
LeftUpLeg -40.424801 47.197163 -0.642624
LeftLeg 0.098285 -0.000000 -0.000000
LeftFoot -18.698454 5.303711 -39.161714
LeftToeBase 11.429700 -0.000000 -0.000000
Spine 49.684718 -30.139167 -28.200272
RightShoulder -23.824752 -22.820310 -16.202053
RightArm -12.615795 37.514673 54.311271
RightForeArm 26.240508 0.000000 11.097860
RightHand 15.888079 -0.000000 -14.746725
RightHandThumb1 -24.326973 -0.000000 -32.862282
LeftShoulder 0.953841 -18.421084 29.349162
LeftArm 45.538300 -13.365409 -57.090849
LeftForeArm -1.995098 -0.000000 8.326681
LeftHand -2.508342 -0.000000 -6.737357
LeftHandThumb1 -26.253704 0.000000 33.147579
Head -12.944566 -42.414769 18.846140
1013
root 2.488518 29.827628 -6.641286 78.318874 -54.256828 -21.722716
RightUpLeg -81.434911 8.947623 -1.670253
RightLeg -2.352091 -0.000000 0.000000
RightFoot 15.770086 -1.647868 6.904352
RightToeBase 10.644693 -0.000000 -0.000000
LeftUpLeg -40.393723 47.187827 -0.621788
LeftLeg 0.070440 -0.000000 -0.000000
LeftFoot -18.708586 5.325806 -39.164396
LeftToeBase 11.353059 -0.000000 -0.000000
Spine 49.693568 -30.144631 -28.185562
RightShoulder -23.811477 -22.828911 -16.201714
RightArm -12.607266 37.531913 54.324467
RightForeArm 26.250781 0.000000 11.084082
RightHand 15.867216 -0.000000 -14.672706
RightHandThumb1 -24.326973 -0.000000 -32.862282
LeftShoulder 0.958757 -18.399149 29.340432
LeftArm 45.532187 -13.369047 -57.068164
LeftForeArm -2.012528 -0.000000 8.323155
LeftHand -2.512751 -0.000000 -6.783315
LeftHandThumb1 -26.253704 0.000000 33.147579
Head -12.920304 -42.423313 18.772770
1014
root 2.490834 29.827722 -6.640205 78.269805 -54.240191 -21.687732
RightUpLeg -81.393398 8.918702 -1.659084
RightLeg -2.385534 -0.000000 0.000000
RightFoot 15.766876 -1.659140 6.937751
RightToeBase 10.701471 -0.000000 -0.000000
LeftUpLeg -40.403134 47.199226 -0.642796
LeftLeg 0.061671 -0.000000 -0.000000
LeftFoot -18.676027 5.287786 -39.153654
LeftToeBase 11.334877 -0.000000 -0.000000
Spine 49.718153 -30.161163 -28.181679
RightShoulder -23.802842 -22.812724 -16.209835
RightArm -12.573421 37.472298 54.354972
RightForeArm 26.191439 -0.000000 11.033607
RightHand 15.735588 0.000000 -14.447185
RightHandThumb1 -24.326973 -0.000000 -32.862282
LeftShoulder 0.960688 -18.372514 29.342077
LeftArm 45.527294 -13.379519 -57.065552
LeftForeArm -2.060281 -0.000000 8.331641
LeftHand -2.531023 -0.000000 -6.819161
LeftHandThumb1 -26.253704 0.000000 33.147579
Head -12.903052 -42.439207 18.731568
1015
root 2.493495 29.828958 -6.639237 78.238614 -54.225652 -21.663693
RightUpLeg -81.369909 8.895159 -1.660314
RightLeg -2.394181 -0.000000 0.000000
RightFoot 15.753635 -1.639300 6.943300
RightToeBase 10.674866 -0.000000 -0.000000
LeftUpLeg -40.418636 47.203002 -0.656549
LeftLeg 0.065674 -0.000000 -0.000000
LeftFoot -18.657504 5.254761 -39.186530
LeftToeBase 11.295672 -0.000000 -0.000000
Spine 49.720753 -30.167862 -28.169906
RightShoulder -23.795498 -22.828202 -16.194333
RightArm -12.528791 37.464317 54.387443
RightForeArm 26.188866 0.000000 11.025103
RightHand 15.656226 -0.000000 -14.505267
RightHandThumb1 -24.326973 -0.000000 -32.862282
LeftShoulder 0.971148 -18.361521 29.339482
LeftArm 45.518358 -13.390792 -57.069097
LeftForeArm -2.052135 -0.000000 8.344135
LeftHand -2.572433 -0.000000 -6.919154
LeftHandThumb1 -26.253704 0.000000 33.147579
Head -12.856816 -42.447729 18.693585
1016
root 2.497986 29.832477 -6.639165 78.201769 -54.162206 -21.585611
RightUpLeg -81.372482 8.833342 -1.609149
RightLeg -2.428372 -0.000000 0.000000
RightFoot 15.776579 -1.648576 6.968542
RightToeBase 10.678613 -0.000000 -0.000000
LeftUpLeg -40.493201 47.127099 -0.636819
LeftLeg 0.104989 -0.000000 -0.000000
LeftFoot -18.672781 5.264282 -39.206375
LeftToeBase 11.278565 -0.000000 -0.000000
Spine 49.706765 -30.249413 -28.100273
RightShoulder -23.782711 -22.827130 -16.217033
RightArm -12.474472 37.413222 54.444819
RightForeArm 26.201031 -0.000000 11.039457
RightHand 15.511704 -0.000000 -14.340374
RightHandThumb1 -24.326973 -0.000000 -32.862282
LeftShoulder 0.984413 -18.364654 29.320780
LeftArm 45.492143 -13.409060 -57.075488
LeftForeArm -2.013102 -0.000000 8.349826
LeftHand -2.571411 -0.000000 -6.950361
LeftHandThumb1 -26.253704 0.000000 33.147579
Head -12.811186 -42.455663 18.625305
